{
	"asset":{
		"generator":"Khronos glTF Blender I/O v4.0.44",
		"version":"2.0"
	},
	"scene":0,
	"scenes":[
		{
			"name":"Scene",
			"nodes":[
				0,
				1,
				2
			]
		}
	],
	"nodes":[
		{
			"mesh":0,
			"name":"c1"
		},
		{
			"mesh":1,
			"name":"c2"
		},
		{
			"mesh":2,
			"name":"c3"
		}
	],
	"meshes":[
		{
			"name":"Plane.001",
			"primitives":[
				{
					"attributes":{
						"POSITION":0,
						"NORMAL":1,
						"TEXCOORD_0":2
					},
					"indices":3
				}
			]
		},
		{
			"name":"Plane.003",
			"primitives":[
				{
					"attributes":{
						"POSITION":4,
						"NORMAL":5,
						"TEXCOORD_0":6
					},
					"indices":3
				}
			]
		},
		{
			"name":"Plane.004",
			"primitives":[
				{
					"attributes":{
						"POSITION":7,
						"NORMAL":8,
						"TEXCOORD_0":9
					},
					"indices":3
				}
			]
		}
	],
	"accessors":[
		{
			"bufferView":0,
			"componentType":5126,
			"count":304,
			"max":[
				-0.06957554817199707,
				3.435089588165283,
				2.0800063610076904
			],
			"min":[
				-2.4728896617889404,
				2.650527238845825,
				-0.37170135974884033
			],
			"type":"VEC3"
		},
		{
			"bufferView":1,
			"componentType":5126,
			"count":304,
			"type":"VEC3"
		},
		{
			"bufferView":2,
			"componentType":5126,
			"count":304,
			"type":"VEC2"
		},
		{
			"bufferView":3,
			"componentType":5123,
			"count":1332,
			"type":"SCALAR"
		},
		{
			"bufferView":4,
			"componentType":5126,
			"count":304,
			"max":[
				3.3546042442321777,
				3.0955026149749756,
				1.9017430543899536
			],
			"min":[
				-0.04689311981201172,
				2.4423649311065674,
				-0.11630043387413025
			],
			"type":"VEC3"
		},
		{
			"bufferView":5,
			"componentType":5126,
			"count":304,
			"type":"VEC3"
		},
		{
			"bufferView":6,
			"componentType":5126,
			"count":304,
			"type":"VEC2"
		},
		{
			"bufferView":7,
			"componentType":5126,
			"count":304,
			"max":[
				1.453871488571167,
				3.366456985473633,
				-0.040581461042165756
			],
			"min":[
				-0.3794283866882324,
				2.7421226501464844,
				-3.0098960399627686
			],
			"type":"VEC3"
		},
		{
			"bufferView":8,
			"componentType":5126,
			"count":304,
			"type":"VEC3"
		},
		{
			"bufferView":9,
			"componentType":5126,
			"count":304,
			"type":"VEC2"
		}
	],
	"bufferViews":[
		{
			"buffer":0,
			"byteLength":3648,
			"byteOffset":0,
			"target":34962
		},
		{
			"buffer":0,
			"byteLength":3648,
			"byteOffset":3648,
			"target":34962
		},
		{
			"buffer":0,
			"byteLength":2432,
			"byteOffset":7296,
			"target":34962
		},
		{
			"buffer":0,
			"byteLength":2664,
			"byteOffset":9728,
			"target":34963
		},
		{
			"buffer":0,
			"byteLength":3648,
			"byteOffset":12392,
			"target":34962
		},
		{
			"buffer":0,
			"byteLength":3648,
			"byteOffset":16040,
			"target":34962
		},
		{
			"buffer":0,
			"byteLength":2432,
			"byteOffset":19688,
			"target":34962
		},
		{
			"buffer":0,
			"byteLength":3648,
			"byteOffset":22120,
			"target":34962
		},
		{
			"buffer":0,
			"byteLength":3648,
			"byteOffset":25768,
			"target":34962
		},
		{
			"buffer":0,
			"byteLength":2432,
			"byteOffset":29416,
			"target":34962
		}
	],
	"buffers":[
		{
			"byteLength":31848,
			"uri":"bezP.bin"
		}
	]
}
