{
	"asset":{
		"generator":"Khronos glTF Blender I/O v4.0.44",
		"version":"2.0"
	},
	"scene":0,
	"scenes":[
		{
			"name":"Scene",
			"nodes":[
				0,
				1,
				2,
				3
			]
		}
	],
	"nodes":[
		{
			"mesh":0,
			"name":"t1"
		},
		{
			"mesh":1,
			"name":"t4"
		},
		{
			"mesh":2,
			"name":"t2"
		},
		{
			"mesh":3,
			"name":"t3"
		}
	],
	"meshes":[
		{
			"name":"Plane",
			"primitives":[
				{
					"attributes":{
						"POSITION":0,
						"NORMAL":1,
						"TEXCOORD_0":2
					},
					"indices":3
				}
			]
		},
		{
			"name":"Plane.001",
			"primitives":[
				{
					"attributes":{
						"POSITION":4,
						"NORMAL":5,
						"TEXCOORD_0":6
					},
					"indices":7
				}
			]
		},
		{
			"name":"Plane.002",
			"primitives":[
				{
					"attributes":{
						"POSITION":8,
						"NORMAL":9,
						"TEXCOORD_0":10
					},
					"indices":11
				}
			]
		},
		{
			"name":"Plane.003",
			"primitives":[
				{
					"attributes":{
						"POSITION":12,
						"NORMAL":13,
						"TEXCOORD_0":14
					},
					"indices":15
				}
			]
		}
	],
	"accessors":[
		{
			"bufferView":0,
			"componentType":5126,
			"count":224,
			"max":[
				0.6428431272506714,
				0.821392297744751,
				0.8934236168861389
			],
			"min":[
				0.40351414680480957,
				0.5631855130195618,
				0.7206239104270935
			],
			"type":"VEC3"
		},
		{
			"bufferView":1,
			"componentType":5126,
			"count":224,
			"type":"VEC3"
		},
		{
			"bufferView":2,
			"componentType":5126,
			"count":224,
			"type":"VEC2"
		},
		{
			"bufferView":3,
			"componentType":5123,
			"count":336,
			"type":"SCALAR"
		},
		{
			"bufferView":4,
			"componentType":5126,
			"count":186,
			"max":[
				0.7550207376480103,
				0.8024935722351074,
				0.9117181301116943
			],
			"min":[
				0.6470384001731873,
				0.6940059065818787,
				0.7787343263626099
			],
			"type":"VEC3"
		},
		{
			"bufferView":5,
			"componentType":5126,
			"count":186,
			"type":"VEC3"
		},
		{
			"bufferView":6,
			"componentType":5126,
			"count":186,
			"type":"VEC2"
		},
		{
			"bufferView":7,
			"componentType":5123,
			"count":336,
			"type":"SCALAR"
		},
		{
			"bufferView":8,
			"componentType":5126,
			"count":190,
			"max":[
				0.5756098628044128,
				0.8949419260025024,
				0.7550555467605591
			],
			"min":[
				0.4345773458480835,
				0.7898272275924683,
				0.6984564065933228
			],
			"type":"VEC3"
		},
		{
			"bufferView":9,
			"componentType":5126,
			"count":190,
			"type":"VEC3"
		},
		{
			"bufferView":10,
			"componentType":5126,
			"count":190,
			"type":"VEC2"
		},
		{
			"bufferView":11,
			"componentType":5123,
			"count":336,
			"type":"SCALAR"
		},
		{
			"bufferView":12,
			"componentType":5126,
			"count":172,
			"max":[
				-0.9753949046134949,
				0.8492109775543213,
				0.9999038577079773
			],
			"min":[
				-1.048493504524231,
				0.7589621543884277,
				0.722359299659729
			],
			"type":"VEC3"
		},
		{
			"bufferView":13,
			"componentType":5126,
			"count":172,
			"type":"VEC3"
		},
		{
			"bufferView":14,
			"componentType":5126,
			"count":172,
			"type":"VEC2"
		},
		{
			"bufferView":15,
			"componentType":5123,
			"count":336,
			"type":"SCALAR"
		}
	],
	"bufferViews":[
		{
			"buffer":0,
			"byteLength":2688,
			"byteOffset":0,
			"target":34962
		},
		{
			"buffer":0,
			"byteLength":2688,
			"byteOffset":2688,
			"target":34962
		},
		{
			"buffer":0,
			"byteLength":1792,
			"byteOffset":5376,
			"target":34962
		},
		{
			"buffer":0,
			"byteLength":672,
			"byteOffset":7168,
			"target":34963
		},
		{
			"buffer":0,
			"byteLength":2232,
			"byteOffset":7840,
			"target":34962
		},
		{
			"buffer":0,
			"byteLength":2232,
			"byteOffset":10072,
			"target":34962
		},
		{
			"buffer":0,
			"byteLength":1488,
			"byteOffset":12304,
			"target":34962
		},
		{
			"buffer":0,
			"byteLength":672,
			"byteOffset":13792,
			"target":34963
		},
		{
			"buffer":0,
			"byteLength":2280,
			"byteOffset":14464,
			"target":34962
		},
		{
			"buffer":0,
			"byteLength":2280,
			"byteOffset":16744,
			"target":34962
		},
		{
			"buffer":0,
			"byteLength":1520,
			"byteOffset":19024,
			"target":34962
		},
		{
			"buffer":0,
			"byteLength":672,
			"byteOffset":20544,
			"target":34963
		},
		{
			"buffer":0,
			"byteLength":2064,
			"byteOffset":21216,
			"target":34962
		},
		{
			"buffer":0,
			"byteLength":2064,
			"byteOffset":23280,
			"target":34962
		},
		{
			"buffer":0,
			"byteLength":1376,
			"byteOffset":25344,
			"target":34962
		},
		{
			"buffer":0,
			"byteLength":672,
			"byteOffset":26720,
			"target":34963
		}
	],
	"buffers":[
		{
			"byteLength":27392,
			"uri":"jackhead_trail_v2.bin"
		}
	]
}
