{
    "asset": {
        "generator": "Khronos glTF Blender I/O v3.3.32",
        "version": "2.0"
    },
    "scene": 0,
    "scenes": [
        {
            "name": "Scene",
            "nodes": [
                0
            ]
        }
    ],
    "nodes": [
        {
            "mesh": 0,
            "name": "a1"
        }
    ],
    "meshes": [
        {
            "name": "Mesh Obsidian Spire.001",
            "primitives": [
                {
                    "attributes": {
                        "POSITION": 0,
                        "NORMAL": 1,
                        "TEXCOORD_0": 2
                    },
                    "indices": 3
                }
            ]
        }
    ],
    "accessors": [
        {
            "bufferView": 0,
            "componentType": 5126,
            "count": 1118,
            "max": [
                1.128192663192749,
                0.952067494392395,
                0.9845104813575745
            ],
            "min": [
                -0.8792782425880432,
                -7.433608573137462e-08,
                -0.9846113324165344
            ],
            "type": "VEC3"
        },
        {
            "bufferView": 1,
            "componentType": 5126,
            "count": 1118,
            "type": "VEC3"
        },
        {
            "bufferView": 2,
            "componentType": 5126,
            "count": 1118,
            "type": "VEC2"
        },
        {
            "bufferView": 3,
            "componentType": 5123,
            "count": 4881,
            "type": "SCALAR"
        }
    ],
    "bufferViews": [
        {
            "buffer": 0,
            "byteLength": 13416,
            "byteOffset": 0,
            "target": 34962
        },
        {
            "buffer": 0,
            "byteLength": 13416,
            "byteOffset": 13416,
            "target": 34962
        },
        {
            "buffer": 0,
            "byteLength": 8944,
            "byteOffset": 26832,
            "target": 34962
        },
        {
            "buffer": 0,
            "byteLength": 9762,
            "byteOffset": 35776,
            "target": 34963
        }
    ],
    "samplers": [
        {
            "magFilter": 9729,
            "minFilter": 9987
        }
    ],
    "buffers": [
        {
            "byteLength": 45540,
            "uri": "obsidian_v1.bin"
        }
    ]
}