{
	"asset":{
		"generator":"Khronos glTF Blender I/O v4.0.44",
		"version":"2.0"
	},
	"scene":0,
	"scenes":[
		{
			"name":"Scene",
			"nodes":[
				0,
				1
			]
		}
	],
	"nodes":[
		{
			"mesh":0,
			"name":"o3"
		},
		{
			"mesh":1,
			"name":"o4"
		}
	],
	"meshes":[
		{
			"name":"Plane.002",
			"primitives":[
				{
					"attributes":{
						"POSITION":0,
						"NORMAL":1,
						"TEXCOORD_0":2
					},
					"indices":3
				}
			]
		},
		{
			"name":"Plane.003",
			"primitives":[
				{
					"attributes":{
						"POSITION":4,
						"NORMAL":5,
						"TEXCOORD_0":6
					},
					"indices":7
				}
			]
		}
	],
	"accessors":[
		{
			"bufferView":0,
			"componentType":5126,
			"count":209,
			"max":[
				0.8658223748207092,
				0.13717202842235565,
				2.3498826026916504
			],
			"min":[
				-0.8658223748207092,
				0.13717202842235565,
				0.733599066734314
			],
			"type":"VEC3"
		},
		{
			"bufferView":1,
			"componentType":5126,
			"count":209,
			"type":"VEC3"
		},
		{
			"bufferView":2,
			"componentType":5126,
			"count":209,
			"type":"VEC2"
		},
		{
			"bufferView":3,
			"componentType":5123,
			"count":1080,
			"type":"SCALAR"
		},
		{
			"bufferView":4,
			"componentType":5126,
			"count":4,
			"max":[
				0.1767369657754898,
				0.1408689320087433,
				1.2362011671066284
			],
			"min":[
				-0.1767369657754898,
				0.1408689320087433,
				0.6890991926193237
			],
			"type":"VEC3"
		},
		{
			"bufferView":5,
			"componentType":5126,
			"count":4,
			"type":"VEC3"
		},
		{
			"bufferView":6,
			"componentType":5126,
			"count":4,
			"type":"VEC2"
		},
		{
			"bufferView":7,
			"componentType":5123,
			"count":6,
			"type":"SCALAR"
		}
	],
	"bufferViews":[
		{
			"buffer":0,
			"byteLength":2508,
			"byteOffset":0,
			"target":34962
		},
		{
			"buffer":0,
			"byteLength":2508,
			"byteOffset":2508,
			"target":34962
		},
		{
			"buffer":0,
			"byteLength":1672,
			"byteOffset":5016,
			"target":34962
		},
		{
			"buffer":0,
			"byteLength":2160,
			"byteOffset":6688,
			"target":34963
		},
		{
			"buffer":0,
			"byteLength":48,
			"byteOffset":8848,
			"target":34962
		},
		{
			"buffer":0,
			"byteLength":48,
			"byteOffset":8896,
			"target":34962
		},
		{
			"buffer":0,
			"byteLength":32,
			"byteOffset":8944,
			"target":34962
		},
		{
			"buffer":0,
			"byteLength":12,
			"byteOffset":8976,
			"target":34963
		}
	],
	"buffers":[
		{
			"byteLength":8988,
			"uri":"spring_v5.bin"
		}
	]
}
