{
	"asset":{
		"generator":"Khronos glTF Blender I/O v4.0.44",
		"version":"2.0"
	},
	"scene":0,
	"scenes":[
		{
			"name":"Scene",
			"nodes":[
				0,
				1
			]
		}
	],
	"nodes":[
		{
			"mesh":0,
			"name":"m1"
		},
		{
			"mesh":1,
			"name":"m2"
		}
	],
	"meshes":[
		{
			"name":"Plane.002",
			"primitives":[
				{
					"attributes":{
						"POSITION":0,
						"NORMAL":1,
						"TEXCOORD_0":2
					},
					"indices":3
				}
			]
		},
		{
			"name":"Plane.004",
			"primitives":[
				{
					"attributes":{
						"POSITION":4,
						"NORMAL":5,
						"TEXCOORD_0":6
					},
					"indices":7
				}
			]
		}
	],
	"accessors":[
		{
			"bufferView":0,
			"componentType":5126,
			"count":259,
			"max":[
				0.8239139914512634,
				0.018144041299819946,
				1.0325899124145508
			],
			"min":[
				-0.8373318314552307,
				-0.9752111434936523,
				0.1643703728914261
			],
			"type":"VEC3"
		},
		{
			"bufferView":1,
			"componentType":5126,
			"count":259,
			"type":"VEC3"
		},
		{
			"bufferView":2,
			"componentType":5126,
			"count":259,
			"type":"VEC2"
		},
		{
			"bufferView":3,
			"componentType":5123,
			"count":1296,
			"type":"SCALAR"
		},
		{
			"bufferView":4,
			"componentType":5126,
			"count":260,
			"max":[
				0.5366644263267517,
				0.5673872232437134,
				0.3440864086151123
			],
			"min":[
				0.4434364140033722,
				-0.9747079610824585,
				-0.5296958684921265
			],
			"type":"VEC3"
		},
		{
			"bufferView":5,
			"componentType":5126,
			"count":260,
			"type":"VEC3"
		},
		{
			"bufferView":6,
			"componentType":5126,
			"count":260,
			"type":"VEC2"
		},
		{
			"bufferView":7,
			"componentType":5123,
			"count":432,
			"type":"SCALAR"
		}
	],
	"bufferViews":[
		{
			"buffer":0,
			"byteLength":3108,
			"byteOffset":0,
			"target":34962
		},
		{
			"buffer":0,
			"byteLength":3108,
			"byteOffset":3108,
			"target":34962
		},
		{
			"buffer":0,
			"byteLength":2072,
			"byteOffset":6216,
			"target":34962
		},
		{
			"buffer":0,
			"byteLength":2592,
			"byteOffset":8288,
			"target":34963
		},
		{
			"buffer":0,
			"byteLength":3120,
			"byteOffset":10880,
			"target":34962
		},
		{
			"buffer":0,
			"byteLength":3120,
			"byteOffset":14000,
			"target":34962
		},
		{
			"buffer":0,
			"byteLength":2080,
			"byteOffset":17120,
			"target":34962
		},
		{
			"buffer":0,
			"byteLength":864,
			"byteOffset":19200,
			"target":34963
		}
	],
	"buffers":[
		{
			"byteLength":20064,
			"uri":"spring_mh.bin"
		}
	]
}
