{
	"asset":{
		"generator":"Khronos glTF Blender I/O v4.0.44",
		"version":"2.0"
	},
	"scene":0,
	"scenes":[
		{
			"name":"Scene",
			"nodes":[
				0,
				1,
				2,
				3
			]
		}
	],
	"nodes":[
		{
			"mesh":0,
			"name":"m1"
		},
		{
			"mesh":1,
			"name":"m2"
		},
		{
			"mesh":2,
			"name":"m1_2"
		},
		{
			"mesh":3,
			"name":"m2_2"
		}
	],
	"meshes":[
		{
			"name":"Plane.002",
			"primitives":[
				{
					"attributes":{
						"POSITION":0,
						"NORMAL":1,
						"TEXCOORD_0":2
					},
					"indices":3
				}
			]
		},
		{
			"name":"Plane.004",
			"primitives":[
				{
					"attributes":{
						"POSITION":4,
						"NORMAL":5,
						"TEXCOORD_0":6
					},
					"indices":7
				}
			]
		},
		{
			"name":"Plane.005",
			"primitives":[
				{
					"attributes":{
						"POSITION":8,
						"NORMAL":9,
						"TEXCOORD_0":10
					},
					"indices":3
				}
			]
		},
		{
			"name":"Plane.006",
			"primitives":[
				{
					"attributes":{
						"POSITION":11,
						"NORMAL":12,
						"TEXCOORD_0":13
					},
					"indices":7
				}
			]
		}
	],
	"accessors":[
		{
			"bufferView":0,
			"componentType":5126,
			"count":259,
			"max":[
				0.8239139914512634,
				0.018144041299819946,
				1.0325899124145508
			],
			"min":[
				-0.8373318314552307,
				-0.9752111434936523,
				0.1643703728914261
			],
			"type":"VEC3"
		},
		{
			"bufferView":1,
			"componentType":5126,
			"count":259,
			"type":"VEC3"
		},
		{
			"bufferView":2,
			"componentType":5126,
			"count":259,
			"type":"VEC2"
		},
		{
			"bufferView":3,
			"componentType":5123,
			"count":1296,
			"type":"SCALAR"
		},
		{
			"bufferView":4,
			"componentType":5126,
			"count":90,
			"max":[
				0.5366644263267517,
				0.5673872232437134,
				0.3440864086151123
			],
			"min":[
				0.4434364140033722,
				-0.9747079610824585,
				-0.5296958684921265
			],
			"type":"VEC3"
		},
		{
			"bufferView":5,
			"componentType":5126,
			"count":90,
			"type":"VEC3"
		},
		{
			"bufferView":6,
			"componentType":5126,
			"count":90,
			"type":"VEC2"
		},
		{
			"bufferView":7,
			"componentType":5123,
			"count":432,
			"type":"SCALAR"
		},
		{
			"bufferView":8,
			"componentType":5126,
			"count":259,
			"max":[
				0.8448131680488586,
				0.02216215431690216,
				1.0409560203552246
			],
			"min":[
				-0.8579637408256531,
				-0.996026873588562,
				0.1510310173034668
			],
			"type":"VEC3"
		},
		{
			"bufferView":9,
			"componentType":5126,
			"count":259,
			"type":"VEC3"
		},
		{
			"bufferView":10,
			"componentType":5126,
			"count":259,
			"type":"VEC2"
		},
		{
			"bufferView":11,
			"componentType":5126,
			"count":90,
			"max":[
				0.5616644024848938,
				0.5673872232437134,
				0.3440864086151123
			],
			"min":[
				0.46843641996383667,
				-0.9747079610824585,
				-0.5296958684921265
			],
			"type":"VEC3"
		},
		{
			"bufferView":12,
			"componentType":5126,
			"count":90,
			"type":"VEC3"
		},
		{
			"bufferView":13,
			"componentType":5126,
			"count":90,
			"type":"VEC2"
		}
	],
	"bufferViews":[
		{
			"buffer":0,
			"byteLength":3108,
			"byteOffset":0,
			"target":34962
		},
		{
			"buffer":0,
			"byteLength":3108,
			"byteOffset":3108,
			"target":34962
		},
		{
			"buffer":0,
			"byteLength":2072,
			"byteOffset":6216,
			"target":34962
		},
		{
			"buffer":0,
			"byteLength":2592,
			"byteOffset":8288,
			"target":34963
		},
		{
			"buffer":0,
			"byteLength":1080,
			"byteOffset":10880,
			"target":34962
		},
		{
			"buffer":0,
			"byteLength":1080,
			"byteOffset":11960,
			"target":34962
		},
		{
			"buffer":0,
			"byteLength":720,
			"byteOffset":13040,
			"target":34962
		},
		{
			"buffer":0,
			"byteLength":864,
			"byteOffset":13760,
			"target":34963
		},
		{
			"buffer":0,
			"byteLength":3108,
			"byteOffset":14624,
			"target":34962
		},
		{
			"buffer":0,
			"byteLength":3108,
			"byteOffset":17732,
			"target":34962
		},
		{
			"buffer":0,
			"byteLength":2072,
			"byteOffset":20840,
			"target":34962
		},
		{
			"buffer":0,
			"byteLength":1080,
			"byteOffset":22912,
			"target":34962
		},
		{
			"buffer":0,
			"byteLength":1080,
			"byteOffset":23992,
			"target":34962
		},
		{
			"buffer":0,
			"byteLength":720,
			"byteOffset":25072,
			"target":34962
		}
	],
	"buffers":[
		{
			"byteLength":25792,
			"uri":"spring_mh_v2.bin"
		}
	]
}
