{
	"asset":{
		"generator":"Khronos glTF Blender I/O v4.0.44",
		"version":"2.0"
	},
	"scene":0,
	"scenes":[
		{
			"name":"Scene",
			"nodes":[
				0,
				1,
				2,
				3,
				4,
				5,
				6
			]
		}
	],
	"nodes":[
		{
			"mesh":0,
			"name":"m1"
		},
		{
			"mesh":1,
			"name":"m2"
		},
		{
			"mesh":2,
			"name":"m2_2"
		},
		{
			"mesh":3,
			"name":"m1_2"
		},
		{
			"mesh":4,
			"name":"m3"
		},
		{
			"mesh":5,
			"name":"m3_3"
		},
		{
			"mesh":6,
			"name":"m_4"
		}
	],
	"meshes":[
		{
			"name":"Plane.002",
			"primitives":[
				{
					"attributes":{
						"POSITION":0,
						"NORMAL":1,
						"TEXCOORD_0":2
					},
					"indices":3
				}
			]
		},
		{
			"name":"Plane.004",
			"primitives":[
				{
					"attributes":{
						"POSITION":4,
						"NORMAL":5,
						"TEXCOORD_0":6
					},
					"indices":7
				}
			]
		},
		{
			"name":"Plane.006",
			"primitives":[
				{
					"attributes":{
						"POSITION":8,
						"NORMAL":9,
						"TEXCOORD_0":10
					},
					"indices":7
				}
			]
		},
		{
			"name":"Plane.001",
			"primitives":[
				{
					"attributes":{
						"POSITION":11,
						"NORMAL":12,
						"TEXCOORD_0":13
					},
					"indices":3
				}
			]
		},
		{
			"name":"Plane.003",
			"primitives":[
				{
					"attributes":{
						"POSITION":14,
						"NORMAL":15,
						"TEXCOORD_0":16
					},
					"indices":17
				}
			]
		},
		{
			"name":"Plane.007",
			"primitives":[
				{
					"attributes":{
						"POSITION":18,
						"NORMAL":19,
						"TEXCOORD_0":20
					},
					"indices":17
				}
			]
		},
		{
			"name":"Plane.008",
			"primitives":[
				{
					"attributes":{
						"POSITION":21,
						"NORMAL":22,
						"TEXCOORD_0":23
					},
					"indices":24
				}
			]
		}
	],
	"accessors":[
		{
			"bufferView":0,
			"componentType":5126,
			"count":259,
			"max":[
				0.8239139914512634,
				0.018144041299819946,
				1.0325899124145508
			],
			"min":[
				-0.8373318314552307,
				-0.9752111434936523,
				0.1643703728914261
			],
			"type":"VEC3"
		},
		{
			"bufferView":1,
			"componentType":5126,
			"count":259,
			"type":"VEC3"
		},
		{
			"bufferView":2,
			"componentType":5126,
			"count":259,
			"type":"VEC2"
		},
		{
			"bufferView":3,
			"componentType":5123,
			"count":1296,
			"type":"SCALAR"
		},
		{
			"bufferView":4,
			"componentType":5126,
			"count":90,
			"max":[
				0.5366644263267517,
				0.5673872232437134,
				0.3440864086151123
			],
			"min":[
				0.4434364140033722,
				-0.9747079610824585,
				-0.5296958684921265
			],
			"type":"VEC3"
		},
		{
			"bufferView":5,
			"componentType":5126,
			"count":90,
			"type":"VEC3"
		},
		{
			"bufferView":6,
			"componentType":5126,
			"count":90,
			"type":"VEC2"
		},
		{
			"bufferView":7,
			"componentType":5123,
			"count":432,
			"type":"SCALAR"
		},
		{
			"bufferView":8,
			"componentType":5126,
			"count":90,
			"max":[
				0.5616644024848938,
				0.5673872232437134,
				0.3440864086151123
			],
			"min":[
				0.46843641996383667,
				-0.9747079610824585,
				-0.5296958684921265
			],
			"type":"VEC3"
		},
		{
			"bufferView":9,
			"componentType":5126,
			"count":90,
			"type":"VEC3"
		},
		{
			"bufferView":10,
			"componentType":5126,
			"count":90,
			"type":"VEC2"
		},
		{
			"bufferView":11,
			"componentType":5126,
			"count":259,
			"max":[
				0.8239139914512634,
				0.018144041299819946,
				1.0325899124145508
			],
			"min":[
				-0.8373318314552307,
				-0.9752111434936523,
				0.1643703728914261
			],
			"type":"VEC3"
		},
		{
			"bufferView":12,
			"componentType":5126,
			"count":259,
			"type":"VEC3"
		},
		{
			"bufferView":13,
			"componentType":5126,
			"count":259,
			"type":"VEC2"
		},
		{
			"bufferView":14,
			"componentType":5126,
			"count":4,
			"max":[
				1.661260724067688,
				-0.980348527431488,
				2.2139878273010254
			],
			"min":[
				-1.661260724067688,
				-0.980348527431488,
				-1.1085336208343506
			],
			"type":"VEC3"
		},
		{
			"bufferView":15,
			"componentType":5126,
			"count":4,
			"type":"VEC3"
		},
		{
			"bufferView":16,
			"componentType":5126,
			"count":4,
			"type":"VEC2"
		},
		{
			"bufferView":17,
			"componentType":5123,
			"count":6,
			"type":"SCALAR"
		},
		{
			"bufferView":18,
			"componentType":5126,
			"count":4,
			"max":[
				1.661260724067688,
				-0.955348551273346,
				2.2139878273010254
			],
			"min":[
				-1.661260724067688,
				-0.955348551273346,
				-1.1085336208343506
			],
			"type":"VEC3"
		},
		{
			"bufferView":19,
			"componentType":5126,
			"count":4,
			"type":"VEC3"
		},
		{
			"bufferView":20,
			"componentType":5126,
			"count":4,
			"type":"VEC2"
		},
		{
			"bufferView":21,
			"componentType":5126,
			"count":30,
			"max":[
				0.1974467784166336,
				0.13044802844524384,
				1.1532549858093262
			],
			"min":[
				-0.1974467635154724,
				-0.11721421778202057,
				0.5161818861961365
			],
			"type":"VEC3"
		},
		{
			"bufferView":22,
			"componentType":5126,
			"count":30,
			"type":"VEC3"
		},
		{
			"bufferView":23,
			"componentType":5126,
			"count":30,
			"type":"VEC2"
		},
		{
			"bufferView":24,
			"componentType":5123,
			"count":84,
			"type":"SCALAR"
		}
	],
	"bufferViews":[
		{
			"buffer":0,
			"byteLength":3108,
			"byteOffset":0,
			"target":34962
		},
		{
			"buffer":0,
			"byteLength":3108,
			"byteOffset":3108,
			"target":34962
		},
		{
			"buffer":0,
			"byteLength":2072,
			"byteOffset":6216,
			"target":34962
		},
		{
			"buffer":0,
			"byteLength":2592,
			"byteOffset":8288,
			"target":34963
		},
		{
			"buffer":0,
			"byteLength":1080,
			"byteOffset":10880,
			"target":34962
		},
		{
			"buffer":0,
			"byteLength":1080,
			"byteOffset":11960,
			"target":34962
		},
		{
			"buffer":0,
			"byteLength":720,
			"byteOffset":13040,
			"target":34962
		},
		{
			"buffer":0,
			"byteLength":864,
			"byteOffset":13760,
			"target":34963
		},
		{
			"buffer":0,
			"byteLength":1080,
			"byteOffset":14624,
			"target":34962
		},
		{
			"buffer":0,
			"byteLength":1080,
			"byteOffset":15704,
			"target":34962
		},
		{
			"buffer":0,
			"byteLength":720,
			"byteOffset":16784,
			"target":34962
		},
		{
			"buffer":0,
			"byteLength":3108,
			"byteOffset":17504,
			"target":34962
		},
		{
			"buffer":0,
			"byteLength":3108,
			"byteOffset":20612,
			"target":34962
		},
		{
			"buffer":0,
			"byteLength":2072,
			"byteOffset":23720,
			"target":34962
		},
		{
			"buffer":0,
			"byteLength":48,
			"byteOffset":25792,
			"target":34962
		},
		{
			"buffer":0,
			"byteLength":48,
			"byteOffset":25840,
			"target":34962
		},
		{
			"buffer":0,
			"byteLength":32,
			"byteOffset":25888,
			"target":34962
		},
		{
			"buffer":0,
			"byteLength":12,
			"byteOffset":25920,
			"target":34963
		},
		{
			"buffer":0,
			"byteLength":48,
			"byteOffset":25932,
			"target":34962
		},
		{
			"buffer":0,
			"byteLength":48,
			"byteOffset":25980,
			"target":34962
		},
		{
			"buffer":0,
			"byteLength":32,
			"byteOffset":26028,
			"target":34962
		},
		{
			"buffer":0,
			"byteLength":360,
			"byteOffset":26060,
			"target":34962
		},
		{
			"buffer":0,
			"byteLength":360,
			"byteOffset":26420,
			"target":34962
		},
		{
			"buffer":0,
			"byteLength":240,
			"byteOffset":26780,
			"target":34962
		},
		{
			"buffer":0,
			"byteLength":168,
			"byteOffset":27020,
			"target":34963
		}
	],
	"buffers":[
		{
			"byteLength":27188,
			"uri":"spring_mh_v3.bin"
		}
	]
}
