{
    "asset" : {
        "generator" : "Khronos glTF Blender I/O v3.3.32",
        "version" : "2.0"
    },
    "scene" : 0,
    "scenes" : [
        {
            "name" : "Scene",
            "nodes" : [
                0
            ]
        }
    ],
    "nodes" : [
        {
            "mesh" : 0,
            "name" : "sword"
        }
    ],
    "meshes" : [
        {
            "name" : "Mesh Warhall Syndicate.001",
            "primitives" : [
                {
                    "attributes" : {
                        "POSITION" : 0,
                        "NORMAL" : 1,
                        "TEXCOORD_0" : 2,
                        "TEXCOORD_1" : 3
                    },
                    "indices" : 4
                }
            ]
        }
    ],
    "accessors" : [
        {
            "bufferView" : 0,
            "componentType" : 5126,
            "count" : 944,
            "max" : [
                0.3710663318634033,
                4.687060832977295,
                0.8436722159385681
            ],
            "min" : [
                -0.3712397813796997,
                1.9922473430633545,
                0.4720917344093323
            ],
            "type" : "VEC3"
        },
        {
            "bufferView" : 1,
            "componentType" : 5126,
            "count" : 944,
            "type" : "VEC3"
        },
        {
            "bufferView" : 2,
            "componentType" : 5126,
            "count" : 944,
            "type" : "VEC2"
        },
        {
            "bufferView" : 3,
            "componentType" : 5126,
            "count" : 944,
            "type" : "VEC2"
        },
        {
            "bufferView" : 4,
            "componentType" : 5123,
            "count" : 1572,
            "type" : "SCALAR"
        }
    ],
    "bufferViews" : [
        {
            "buffer" : 0,
            "byteLength" : 11328,
            "byteOffset" : 0,
            "target" : 34962
        },
        {
            "buffer" : 0,
            "byteLength" : 11328,
            "byteOffset" : 11328,
            "target" : 34962
        },
        {
            "buffer" : 0,
            "byteLength" : 7552,
            "byteOffset" : 22656,
            "target" : 34962
        },
        {
            "buffer" : 0,
            "byteLength" : 7552,
            "byteOffset" : 30208,
            "target" : 34962
        },
        {
            "buffer" : 0,
            "byteLength" : 3144,
            "byteOffset" : 37760,
            "target" : 34963
        }
    ],
    "buffers" : [
        {
            "byteLength" : 40904,
            "uri" : "sword_1.bin"
        }
    ]
}
