{
	"asset":{
		"generator":"Khronos glTF Blender I/O v4.5.48",
		"version":"2.0"
	},
	"extensionsUsed":[
		"EXT_texture_webp",
		"KHR_materials_emissive_strength",
		"KHR_materials_specular"
	],
	"extensionsRequired":[
		"EXT_texture_webp"
	],
	"scene":0,
	"scenes":[
		{
			"name":"Scene",
			"nodes":[
				4
			]
		}
	],
	"nodes":[
		{
			"name":"Rig_Valannia_Pyramid:Tip",
			"translation":[
				0,
				300,
				-1.8189894035458565e-12
			]
		},
		{
			"children":[
				0
			],
			"name":"Rig_Valannia_Pyramid:Root",
			"rotation":[
				-0.7071067690849304,
				0,
				0,
				0.7071067690849304
			]
		},
		{
			"mesh":0,
			"name":"Rig_Valannia_Pyramid:MDL_Pyramid_Base",
			"skin":0
		},
		{
			"mesh":1,
			"name":"Rig_Valannia_Pyramid:MDL_Pyramid_Top",
			"skin":0
		},
		{
			"children":[
				2,
				3,
				1
			],
			"name":"Armature.004",
			"rotation":[
				0.7071068286895752,
				0,
				0,
				0.7071068286895752
			],
			"scale":[
				0.009999999776482582,
				0.009999999776482582,
				0.009999999776482582
			]
		}
	],
	"animations":[
		{
			"channels":[
				{
					"sampler":0,
					"target":{
						"node":1,
						"path":"translation"
					}
				},
				{
					"sampler":1,
					"target":{
						"node":1,
						"path":"rotation"
					}
				},
				{
					"sampler":2,
					"target":{
						"node":1,
						"path":"scale"
					}
				},
				{
					"sampler":3,
					"target":{
						"node":0,
						"path":"translation"
					}
				},
				{
					"sampler":4,
					"target":{
						"node":0,
						"path":"rotation"
					}
				},
				{
					"sampler":5,
					"target":{
						"node":0,
						"path":"scale"
					}
				}
			],
			"name":"Animation",
			"samplers":[
				{
					"input":19,
					"interpolation":"LINEAR",
					"output":20
				},
				{
					"input":19,
					"interpolation":"LINEAR",
					"output":21
				},
				{
					"input":19,
					"interpolation":"LINEAR",
					"output":22
				},
				{
					"input":19,
					"interpolation":"LINEAR",
					"output":23
				},
				{
					"input":19,
					"interpolation":"LINEAR",
					"output":24
				},
				{
					"input":19,
					"interpolation":"LINEAR",
					"output":25
				}
			]
		}
	],
	"materials":[
		{
			"doubleSided":true,
			"emissiveFactor":[
				1,
				1,
				1
			],
			"emissiveTexture":{
				"index":0
			},
			"extensions":{
				"KHR_materials_emissive_strength":{
					"emissiveStrength":10
				},
				"KHR_materials_specular":{
					"specularColorFactor":[
						2.0,
						2.0,
						2.0
					]
				}
			},
			"name":"MAT_Pyramid",
			"normalTexture":{
				"index":1
			},
			"pbrMetallicRoughness":{
				"baseColorTexture":{
					"index":2
				},
				"metallicFactor":0,
				"metallicRoughnessTexture":{
					"index":3
				}
			}
		},
		{
			"alphaMode":"BLEND",
			"doubleSided":true,
			"extensions":{
				"KHR_materials_specular":{
					"specularColorFactor":[
						2.0,
						2.0,
						2.0
					]
				}
			},
			"name":"MAT_Pyramid_Vines",
			"normalTexture":{
				"index":4
			},
			"pbrMetallicRoughness":{
				"baseColorTexture":{
					"index":5
				},
				"metallicFactor":0,
				"metallicRoughnessTexture":{
					"index":6
				}
			}
		}
	],
	"meshes":[
		{
			"name":"Mesh.019",
			"primitives":[
				{
					"attributes":{
						"POSITION":0,
						"NORMAL":1,
						"TEXCOORD_0":2,
						"JOINTS_0":3,
						"WEIGHTS_0":4
					},
					"indices":5,
					"material":0
				},
				{
					"attributes":{
						"POSITION":6,
						"NORMAL":7,
						"TEXCOORD_0":8,
						"JOINTS_0":9,
						"WEIGHTS_0":10
					},
					"indices":11,
					"material":1
				}
			]
		},
		{
			"name":"Mesh.020",
			"primitives":[
				{
					"attributes":{
						"POSITION":13,
						"NORMAL":14,
						"TEXCOORD_0":15,
						"JOINTS_0":16,
						"WEIGHTS_0":17
					},
					"indices":18,
					"material":0
				}
			]
		}
	],
	"textures":[
		{
			"extensions":{
				"EXT_texture_webp":{
					"source":0
				}
			},
			"sampler":0
		},
		{
			"extensions":{
				"EXT_texture_webp":{
					"source":1
				}
			},
			"sampler":0
		},
		{
			"extensions":{
				"EXT_texture_webp":{
					"source":2
				}
			},
			"sampler":0
		},
		{
			"extensions":{
				"EXT_texture_webp":{
					"source":3
				}
			},
			"sampler":0
		},
		{
			"extensions":{
				"EXT_texture_webp":{
					"source":4
				}
			},
			"sampler":0
		},
		{
			"extensions":{
				"EXT_texture_webp":{
					"source":5
				}
			},
			"sampler":0
		},
		{
			"extensions":{
				"EXT_texture_webp":{
					"source":6
				}
			},
			"sampler":0
		}
	],
	"images":[
		{
			"mimeType":"image/webp",
			"name":"T_Pyramid_Emissive",
			"uri":"Textures/T_Pyramid_Emissive.webp"
		},
		{
			"mimeType":"image/webp",
			"name":"T_Pyramid_Normal_DirectX",
			"uri":"Textures/T_Pyramid_Normal_DirectX.webp"
		},
		{
			"mimeType":"image/webp",
			"name":"T_Pyramid_Base_color",
			"uri":"Textures/T_Pyramid_Base_color.webp"
		},
		{
			"mimeType":"image/webp",
			"name":"T_Pyramid_Roughness",
			"uri":"Textures/T_Pyramid_Roughness.webp"
		},
		{
			"mimeType":"image/webp",
			"name":"T_Pyramid_Vines_Normal_DirectX",
			"uri":"Textures/T_Pyramid_Vines_Normal_DirectX.webp"
		},
		{
			"mimeType":"image/webp",
			"name":"T_Pyramid_Vines_Base_color-T_Pyramid_Vines_Opacity",
			"uri":"Textures/T_Pyramid_Vines_Base_color-T_Pyramid_Vines_Opacity.webp"
		},
		{
			"mimeType":"image/webp",
			"name":"T_Pyramid_Vines_Roughness",
			"uri":"Textures/T_Pyramid_Vines_Roughness.webp"
		}
	],
	"skins":[
		{
			"inverseBindMatrices":12,
			"joints":[
				1,
				0
			],
			"name":"Armature.004"
		}
	],
	"accessors":[
		{
			"bufferView":0,
			"componentType":5126,
			"count":11233,
			"max":[
				3.1456995010375977,
				2.6229407787323,
				2.7703170776367188
			],
			"min":[
				-3.1456995010375977,
				-0.003926072735339403,
				-2.82889723777771
			],
			"type":"VEC3"
		},
		{
			"bufferView":1,
			"componentType":5126,
			"count":11233,
			"type":"VEC3"
		},
		{
			"bufferView":2,
			"componentType":5126,
			"count":11233,
			"type":"VEC2"
		},
		{
			"bufferView":3,
			"componentType":5121,
			"count":11233,
			"type":"VEC4"
		},
		{
			"bufferView":4,
			"componentType":5126,
			"count":11233,
			"type":"VEC4"
		},
		{
			"bufferView":5,
			"componentType":5123,
			"count":18684,
			"type":"SCALAR"
		},
		{
			"bufferView":6,
			"componentType":5126,
			"count":1580,
			"max":[
				3.192798137664795,
				2.3591601848602295,
				2.842257022857666
			],
			"min":[
				-3.2276418209075928,
				0.0023854419123381376,
				-2.8806591033935547
			],
			"type":"VEC3"
		},
		{
			"bufferView":7,
			"componentType":5126,
			"count":1580,
			"type":"VEC3"
		},
		{
			"bufferView":8,
			"componentType":5126,
			"count":1580,
			"type":"VEC2"
		},
		{
			"bufferView":9,
			"componentType":5121,
			"count":1580,
			"type":"VEC4"
		},
		{
			"bufferView":10,
			"componentType":5126,
			"count":1580,
			"type":"VEC4"
		},
		{
			"bufferView":11,
			"componentType":5123,
			"count":3744,
			"type":"SCALAR"
		},
		{
			"bufferView":12,
			"componentType":5126,
			"count":2,
			"type":"MAT4"
		},
		{
			"bufferView":13,
			"componentType":5126,
			"count":80,
			"max":[
				0.6170764565467834,
				3.819413900375366,
				0.6167908310890198
			],
			"min":[
				-0.6168611645698547,
				2.98067045211792,
				-0.6171467304229736
			],
			"type":"VEC3"
		},
		{
			"bufferView":14,
			"componentType":5126,
			"count":80,
			"type":"VEC3"
		},
		{
			"bufferView":15,
			"componentType":5126,
			"count":80,
			"type":"VEC2"
		},
		{
			"bufferView":16,
			"componentType":5121,
			"count":80,
			"type":"VEC4"
		},
		{
			"bufferView":17,
			"componentType":5126,
			"count":80,
			"type":"VEC4"
		},
		{
			"bufferView":18,
			"componentType":5123,
			"count":114,
			"type":"SCALAR"
		},
		{
			"bufferView":19,
			"componentType":5126,
			"count":240,
			"max":[
				8
			],
			"min":[
				0.03333333333333333
			],
			"type":"SCALAR"
		},
		{
			"bufferView":20,
			"componentType":5126,
			"count":240,
			"type":"VEC3"
		},
		{
			"bufferView":21,
			"componentType":5126,
			"count":240,
			"type":"VEC4"
		},
		{
			"bufferView":22,
			"componentType":5126,
			"count":240,
			"type":"VEC3"
		},
		{
			"bufferView":23,
			"componentType":5126,
			"count":240,
			"type":"VEC3"
		},
		{
			"bufferView":24,
			"componentType":5126,
			"count":240,
			"type":"VEC4"
		},
		{
			"bufferView":25,
			"componentType":5126,
			"count":240,
			"type":"VEC3"
		}
	],
	"bufferViews":[
		{
			"buffer":0,
			"byteLength":134796,
			"byteOffset":0,
			"target":34962
		},
		{
			"buffer":0,
			"byteLength":134796,
			"byteOffset":134796,
			"target":34962
		},
		{
			"buffer":0,
			"byteLength":89864,
			"byteOffset":269592,
			"target":34962
		},
		{
			"buffer":0,
			"byteLength":44932,
			"byteOffset":359456,
			"target":34962
		},
		{
			"buffer":0,
			"byteLength":179728,
			"byteOffset":404388,
			"target":34962
		},
		{
			"buffer":0,
			"byteLength":37368,
			"byteOffset":584116,
			"target":34963
		},
		{
			"buffer":0,
			"byteLength":18960,
			"byteOffset":621484,
			"target":34962
		},
		{
			"buffer":0,
			"byteLength":18960,
			"byteOffset":640444,
			"target":34962
		},
		{
			"buffer":0,
			"byteLength":12640,
			"byteOffset":659404,
			"target":34962
		},
		{
			"buffer":0,
			"byteLength":6320,
			"byteOffset":672044,
			"target":34962
		},
		{
			"buffer":0,
			"byteLength":25280,
			"byteOffset":678364,
			"target":34962
		},
		{
			"buffer":0,
			"byteLength":7488,
			"byteOffset":703644,
			"target":34963
		},
		{
			"buffer":0,
			"byteLength":128,
			"byteOffset":711132
		},
		{
			"buffer":0,
			"byteLength":960,
			"byteOffset":711260,
			"target":34962
		},
		{
			"buffer":0,
			"byteLength":960,
			"byteOffset":712220,
			"target":34962
		},
		{
			"buffer":0,
			"byteLength":640,
			"byteOffset":713180,
			"target":34962
		},
		{
			"buffer":0,
			"byteLength":320,
			"byteOffset":713820,
			"target":34962
		},
		{
			"buffer":0,
			"byteLength":1280,
			"byteOffset":714140,
			"target":34962
		},
		{
			"buffer":0,
			"byteLength":228,
			"byteOffset":715420,
			"target":34963
		},
		{
			"buffer":0,
			"byteLength":960,
			"byteOffset":715648
		},
		{
			"buffer":0,
			"byteLength":2880,
			"byteOffset":716608
		},
		{
			"buffer":0,
			"byteLength":3840,
			"byteOffset":719488
		},
		{
			"buffer":0,
			"byteLength":2880,
			"byteOffset":723328
		},
		{
			"buffer":0,
			"byteLength":2880,
			"byteOffset":726208
		},
		{
			"buffer":0,
			"byteLength":3840,
			"byteOffset":729088
		},
		{
			"buffer":0,
			"byteLength":2880,
			"byteOffset":732928
		}
	],
	"samplers":[
		{
			"magFilter":9729,
			"minFilter":9987
		}
	],
	"buffers":[
		{
			"byteLength":735808,
			"uri":"ZeraphyTheEternalPyramid.bin"
		}
	]
}
